<svg width="72" height="53" viewBox="0 0 72 53" fill="none" xmlns="http://www.w3.org/2000/svg">
<path d="M4.66454 25.2628L4.66436 25.2637C4.38535 26.6085 4.24448 27.9852 4.24448 29.3619C4.24448 33.7061 5.61426 37.8437 8.20578 41.3286C8.58874 41.8434 8.47818 42.5688 7.95978 42.9482C7.75169 43.1005 7.50904 43.1739 7.26894 43.1739C6.91229 43.1739 6.55935 43.0118 6.33048 42.7042L6.33046 42.7041C3.44054 38.8186 1.91284 34.2046 1.91284 29.3622C1.91284 27.829 2.0697 26.2952 2.37935 24.8032C2.37938 24.803 2.37941 24.8028 2.37945 24.8027L2.49095 24.2474L2.49096 24.2474C2.68214 23.2966 2.90433 22.351 3.15564 21.4128C3.09291 21.4546 3.03098 21.4974 2.96992 21.5413L4.66454 25.2628ZM4.66454 25.2628L4.77761 24.7005L4.77761 24.7005C5.07602 23.2158 5.45336 21.744 5.90475 20.2949M4.66454 25.2628L5.90475 20.2949M5.90475 20.2949C6.17958 20.2417 6.45882 20.2022 6.74197 20.1778L5.90475 20.2949ZM10.6943 20.878C9.50298 20.3013 8.13647 20.0585 6.74202 20.1778L10.6943 20.878ZM10.6943 20.878C11.2717 21.1579 11.9697 20.9206 12.2524 20.3458C12.5355 19.7706 12.2945 19.0772 11.716 18.7972C10.2016 18.0637 8.48661 17.7399 6.74413 17.8559C6.98908 17.2203 7.40023 16.2253 7.54093 15.8882C8.52266 16.1088 9.42101 16.516 10.1788 17.0889C10.6861 17.4737 11.4194 17.3811 11.8117 16.87C12.2026 16.3612 12.1034 15.6344 11.591 15.247C10.2257 14.2149 8.54623 13.5852 6.73518 13.4235L10.6943 20.878ZM0.960994 15.8692C1.23557 16.4482 1.93024 16.6945 2.51152 16.4234L2.51159 16.4234C3.31649 16.0474 4.18525 15.8153 5.07683 15.7326C4.71571 16.6084 4.38089 17.4957 4.07406 18.3928C3.18751 18.6989 2.35416 19.1257 1.60275 19.6657L1.60271 19.6657C1.08125 20.0407 0.96404 20.765 1.34246 21.2832L1.34248 21.2832C1.72285 21.804 2.45372 21.9133 2.96972 21.5414L0.960994 15.8692ZM0.960994 15.8692C0.686178 15.2899 0.937121 14.6002 1.51949 14.3282M0.960994 15.8692L1.51949 14.3282M1.51949 14.3282L1.5195 14.3282C3.13195 13.5754 4.93527 13.2622 6.73514 13.4235L1.51949 14.3282Z" fill="#08CFD4" stroke="#08CFD4" stroke-width="0.3"/>
<path d="M15.6649 3.92044L15.6649 3.92043C15.4476 3.61836 15.1102 3.44589 14.7354 3.44589H14.7294C14.3717 3.44766 14.0494 3.60623 13.8335 3.88297L10.026 10.9365C9.72198 11.5002 9.01593 11.7117 8.44884 11.4103C7.88127 11.1089 7.66655 10.4071 7.97134 9.84264L15.6649 3.92044ZM15.6649 3.92044L19.2411 8.89086L19.2411 8.89088C19.601 9.39094 20.2264 9.63958 20.835 9.52717L20.8351 9.52716C22.0661 9.29935 23.3281 9.18395 24.5864 9.18395H28.9916C29.5061 9.18395 29.992 8.93609 30.2922 8.51963L30.2923 8.51951L33.6202 3.89399C33.8374 3.59217 34.1753 3.41931 34.5499 3.41931C34.9247 3.41931 35.2625 3.59204 35.4797 3.89398L35.4797 3.89399L38.8081 8.52019L38.8082 8.5203C39.1079 8.93613 39.5938 9.18395 40.1082 9.18395H43.3072C47.0433 9.18395 50.6955 10.1972 53.8688 12.1137L53.8689 12.1137C54.058 12.2278 54.2671 12.2823 54.4737 12.2823C54.8659 12.2823 55.2502 12.0853 55.47 11.727C55.8056 11.1802 55.6302 10.4677 55.0804 10.1356L55.0028 10.2639L55.0803 10.1355C51.5413 7.99835 47.4702 6.86869 43.3072 6.86869H40.4853L37.3767 2.54779C36.726 1.64334 35.6694 1.10391 34.5499 1.10391C33.4307 1.10405 32.3739 1.64347 31.7232 2.54793L28.6145 6.86869H24.5864C23.3418 6.86869 22.0937 6.97027 20.869 7.17067L17.5619 2.5741L17.5619 2.57408C16.9105 1.66896 15.8547 1.13035 14.7352 1.13035H14.7351H14.7351H14.7351H14.735H14.735H14.735H14.7349H14.7349H14.7349H14.7348H14.7348H14.7348H14.7347H14.7347H14.7347H14.7347H14.7346H14.7346H14.7346H14.7345H14.7345H14.7345H14.7344H14.7344H14.7344H14.7343H14.7343H14.7343H14.7342H14.7342H14.7342H14.7342H14.7341H14.7341H14.7341H14.734H14.734H14.734H14.7339H14.7339H14.7339H14.7338H14.7338H14.7338H14.7338H14.7337H14.7337H14.7337H14.7336H14.7336H14.7336H14.7335H14.7335H14.7335H14.7334H14.7334H14.7334H14.7333H14.7333H14.7333H14.7333H14.7332H14.7332H14.7332H14.7331H14.7331H14.7331H14.733H14.733H14.733H14.7329H14.7329H14.7329H14.7328H14.7328H14.7328H14.7328H14.7327H14.7327H14.7327H14.7326H14.7326H14.7326H14.7325H14.7325H14.7325H14.7324H14.7324H14.7324H14.7324H14.7323H14.7323H14.7323H14.7322H14.7322H14.7322H14.7321H14.7321H14.7321H14.732H14.732H14.732H14.732H14.7319H14.7319H14.7319H14.7318H14.7318H14.7318H14.7317H14.7317H14.7317H14.7316H14.7316H14.7316H14.7315H14.7315H14.7315H14.7315H14.7314H14.7314H14.7314H14.7313H14.7313H14.7313H14.7312H14.7312H14.7312H14.7311H14.7311H14.7311H14.7311H14.731H14.731H14.731H14.7309H14.7309H14.7309H14.7308H14.7308H14.7308H14.7307H14.7307H14.7307H14.7307H14.7306H14.7306H14.7306H14.7305H14.7305H14.7305H14.7304H14.7304H14.7304H14.7303H14.7303H14.7303H14.7302H14.7302H14.7302H14.7302H14.7301H14.7301H14.7301H14.73H14.73H14.73H14.7299H14.7299H14.7299H14.7298H14.7298H14.7298H14.7298H14.7297H14.7297H14.7297H14.7296H14.7296H14.7296H14.7295H14.7295H14.7295H14.7294H14.7294H14.7294H14.7294H14.7293H14.7293H14.7293H14.7292H14.7292H14.7292H14.7291H14.7291H14.7291H14.729H14.729H14.729H14.729H14.7289H14.7289H14.7289H14.7288H14.7288H14.7288H14.7287H14.7287H14.7287H14.7286H14.7286H14.7286H14.7286H14.7285H14.7285H14.7285H14.7284H14.7284H14.7284H14.7283H14.7283H14.7283H14.7282H14.7282H14.7282H14.7281H14.7281H14.7281H14.7281H14.728H14.728H14.728H14.7279H14.7279H14.7279H14.7278H14.7278H14.7278H14.7277H14.7277H14.7277H14.7277H14.7276H14.7276H14.7276H14.7275H14.7275H14.7275H14.7274H14.7274H14.7274H14.7273H14.7273H14.7273H14.7273H14.7272H14.7272H14.7272H14.7271H14.7271H14.7271H14.727H14.727H14.727H14.7269H14.7269H14.7269H14.7269H14.7268H14.7268H14.7268H14.7267H14.7267H14.7267H14.7266H14.7266H14.7266H14.7265H14.7265H14.7265H14.7265H14.7264H14.7264H14.7264H14.7263H14.7263H14.7263H14.7262H14.7262H14.7262H14.7261H14.7261H14.7261H14.7261H14.726H14.726H14.726H14.7259H14.7259H14.7259H14.7258H14.7258H14.7258H14.7257H14.7257H14.7257H14.7257H14.7256H14.7256H14.7256H14.7255H14.7255H14.7255H14.7254H14.7254H14.7254H14.7253H14.7253H14.7253H14.7252H14.7252H14.7252H14.7252H14.7251H14.7251H14.7251H14.725H14.725H14.725H14.7249H14.7249H14.7249H14.7248H14.7248H14.7248H14.7248H14.7247H14.7247H14.7247H14.7246H14.7246H14.7246H14.7245H14.7245H14.7245H14.7244H14.7244H14.7244H14.7244H14.7243H14.7243H14.7243H14.7242H14.7242H14.7242H14.7241H14.7241H14.7241H14.724H14.724H14.724H14.724H14.7239H14.7239H14.7239H14.7238H14.7238H14.7238H14.7237H14.7237H14.7237H14.7236H14.7236H14.7236H14.7236H14.7235H14.7235H14.7235H14.7234H14.7234H14.7234H14.7233H14.7233H14.7233H14.7232H14.7232H14.7232H14.7231H14.7231H14.7231H14.7231H14.723H14.723H14.723H14.7229H14.7229H14.7229H14.7228H14.7228H14.7228H14.7227H14.7227H14.7227H14.7227H14.7226H14.7226H14.7226H14.7225H14.7225H14.7225H14.7224H14.7224H14.7224H14.7223H14.7223H14.7223H14.7222H14.7222H14.7222H14.7222H14.7221H14.7221H14.7221H14.722H14.722H14.722H14.7219H14.7219H14.7219H14.7218H14.7218H14.7218H14.7218H14.7217H14.7217H14.7217H14.7216H14.7216H14.7216H14.7215H14.7215H14.7215H14.7214H14.7214H14.7214H14.7214H14.7213H14.7213H14.7213H14.7212H14.7212H14.7212H14.7211H14.7211H14.7211H14.721H14.721H14.721H14.7209H14.7209H14.7209H14.7209H14.7208H14.7208H14.7208H14.7207H14.7207H14.7207H14.7206H14.7206H14.7206H14.7205H14.7205H14.7205H14.7204H14.7204H14.7204H14.7204H14.7203H14.7203H14.7203H14.7202H14.7202H14.7202H14.7201H14.7201H14.7201H14.72H14.72H14.72H14.72H14.7199H14.7199H14.7199H14.7198H14.7198H14.7198H14.7197H14.7197H14.7197H14.7196H14.7196H14.7196H14.7195H14.7195H14.7195H14.7195H14.7194H14.7194H14.7194H14.7193L14.7193 1.13035L14.7186 1.13035C13.5928 1.13574 12.5352 1.68512 11.8895 2.6009L11.8894 2.60109C11.8634 2.63808 11.839 2.67709 11.8169 2.71841C11.8169 2.71853 11.8168 2.71865 11.8167 2.71877L7.97135 9.84262L15.6649 3.92044Z" fill="#08CFD4" stroke="#08CFD4" stroke-width="0.3"/>
<path d="M70.2858 9.13665L70.2858 9.13668C70.9275 9.90825 71.2285 10.8824 71.1323 11.8787C70.8731 14.564 69.6929 17.1181 67.8089 19.0712L67.7009 18.9671L67.8089 19.0712C66.8625 20.0521 65.7671 20.8593 64.5453 21.4768C64.9301 22.4966 65.2406 23.5466 65.4708 24.6074C65.7481 25.8851 65.3547 27.202 64.4201 28.1293L64.3144 28.0229L64.4201 28.1293L41.6375 50.7299C40.906 51.4557 39.9327 51.8556 38.8984 51.8556H24.5863C18.9286 51.8556 13.5099 49.7764 9.32886 46.0009L9.32884 46.0009C8.85247 45.5706 8.81743 44.8379 9.25161 44.3648C9.68475 43.8925 10.4216 43.8583 10.8975 44.2882C14.6483 47.6751 19.5096 49.5404 24.5864 49.5404H38.3156C37.8763 47.8647 37.654 46.139 37.654 44.393C37.654 33.1278 46.892 23.9653 58.2449 23.9653C59.8752 23.9653 61.4882 24.1551 63.0594 24.5294C62.8196 23.5628 62.5066 22.6094 62.1246 21.6887C61.8013 20.9096 62.1727 20.0034 62.9499 19.6659C64.1574 19.1413 65.2255 18.4024 66.1254 17.4695L66.2334 17.5736L66.1255 17.4695C67.6485 15.8907 68.6025 13.8264 68.8118 11.6577C68.8874 10.8736 68.3056 10.1724 67.5122 10.0971L67.5263 9.94782L67.5122 10.0971C66.7194 10.0218 66.0128 10.6022 65.9373 11.3854C65.6618 14.2417 63.6884 16.5889 60.9118 17.3638C60.2989 17.5349 59.6464 17.3262 59.2504 16.831L59.3675 16.7374L59.2504 16.831C58.6348 16.0612 57.9566 15.3296 57.235 14.6568C56.7654 14.2191 56.7424 13.4858 57.1839 13.0197C57.6247 12.5545 58.3618 12.5317 58.8308 12.9691C58.8308 12.9691 58.8308 12.9691 58.8308 12.9691L58.7285 13.0788C59.4248 13.7279 60.0843 14.4265 60.6936 15.1595L70.2858 9.13665ZM70.2858 9.13665C69.6438 8.36508 68.7372 7.88777 67.7326 7.79237L67.7323 7.79234C65.6627 7.59967 63.8148 9.11018 63.6166 11.1647C63.4492 12.9008 62.3397 14.3524 60.7402 14.9813L70.2858 9.13665ZM58.4589 29.1112C58.4178 29.5704 58.6528 29.9886 59.0257 30.2084L44.0689 45.0458C44.0565 44.6361 44.0514 44.0766 44.0544 43.9741C44.0735 43.3339 43.5661 42.8016 42.9236 42.7826L42.9233 42.7826C42.2874 42.7651 41.7433 43.2647 41.7239 43.9055V43.9055C41.719 44.0711 41.7453 45.5139 41.8024 46.0699C41.8358 46.3947 42.0016 46.6733 42.24 46.8601L40.4842 48.6018C40.1538 47.2281 39.9854 45.8187 39.9854 44.3931C39.9854 34.4072 48.1756 26.2806 58.2449 26.2806C59.6813 26.2806 61.1018 26.4484 62.486 26.7758L61.0212 28.2289C60.591 28.1564 60.1572 28.0989 59.723 28.0606L59.7227 28.0606C59.085 28.0059 58.5161 28.4728 58.4589 29.1112Z" fill="#08CFD4" stroke="#08CFD4" stroke-width="0.3"/>
<path d="M19.7041 18.6004L19.704 18.6004C19.1739 18.9631 19.0401 19.6846 19.4062 20.2114L19.4062 20.2115C20.1136 21.229 21.2783 21.836 22.5217 21.836C23.3034 21.836 24.053 21.5949 24.678 21.1642C25.303 21.5949 26.0525 21.836 26.8342 21.836C28.0778 21.836 29.2425 21.2288 29.9497 20.2115L29.9498 20.2114C30.3159 19.6846 30.1821 18.9632 29.6518 18.6006C29.1225 18.2382 28.3966 18.3699 28.0312 18.8962C27.7594 19.2873 27.3119 19.5208 26.8342 19.5208C26.4629 19.5208 26.1107 19.3776 25.8437 19.1294V17.5717C25.8437 16.931 25.3207 16.414 24.6781 16.414C24.0354 16.414 23.5124 16.9311 23.5124 17.5716V19.1292C23.2453 19.3773 22.893 19.5207 22.5217 19.5207C22.0441 19.5207 21.5967 19.2869 21.3247 18.8958C20.959 18.3698 20.2338 18.2381 19.7041 18.6004Z" fill="#08CFD4" stroke="#08CFD4" stroke-width="0.3"/>
<path d="M15.3009 15.75C15.3009 16.578 15.9772 17.2472 16.809 17.2472C17.6407 17.2472 18.317 16.578 18.317 15.75C18.317 14.922 17.6407 14.2528 16.809 14.2528C15.9772 14.2528 15.3009 14.922 15.3009 15.75Z" fill="#08CFD4" stroke="#08CFD4" stroke-width="0.3"/>
<path d="M32.5472 17.2472C33.3789 17.2472 34.0552 16.578 34.0552 15.75C34.0552 14.922 33.3789 14.2528 32.5472 14.2528C31.7155 14.2528 31.0391 14.922 31.0391 15.75C31.0391 16.578 31.7155 17.2472 32.5472 17.2472Z" fill="#08CFD4" stroke="#08CFD4" stroke-width="0.3"/>
<path d="M37.6398 18.7972C39.2129 18.0354 41.0027 17.7154 42.8148 17.8714L37.6398 18.7972ZM37.6398 18.7972C37.6398 18.7972 37.6398 18.7972 37.6398 18.7972M37.6398 18.7972L37.6398 18.7972M37.6398 18.7972L37.7051 18.9322L37.6398 18.7972ZM37.6398 18.7972C37.0614 19.0771 36.8202 19.7705 37.1034 20.3457L37.6398 18.7972ZM46.3857 21.5409C45.3124 20.7697 44.0084 20.2976 42.6139 20.1777C41.2187 20.0579 39.8528 20.301 38.6616 20.8778L46.3857 21.5409ZM46.3857 21.5409C46.9014 21.913 47.6327 21.8037 48.0129 21.2829C48.3915 20.7647 48.2745 20.0405 47.7528 19.6656L46.3857 21.5409ZM37.1034 20.3457C37.386 20.9201 38.0837 21.1581 38.6615 20.8779L37.1034 20.3457ZM47.7528 19.6656C46.3352 18.6468 44.6275 18.027 42.8149 17.8714L47.7528 19.6656Z" fill="#08CFD4" stroke="#08CFD4" stroke-width="0.3"/>
<path d="M48.3945 15.8691L48.3945 15.869C48.6693 15.2898 48.4184 14.6 47.836 14.3281C46.2237 13.5751 44.4199 13.2627 42.6207 13.4233L42.634 13.5727L42.6207 13.4233C40.8094 13.585 39.1298 14.2147 37.7645 15.2468L37.7645 15.2468C37.2522 15.6342 37.153 16.3612 37.5439 16.87L37.6629 16.7786L37.5439 16.87C37.9364 17.3808 38.6695 17.4734 39.1769 17.0888C40.189 16.3234 41.4513 15.8521 42.8293 15.7291C44.2183 15.6053 45.6064 15.8453 46.8437 16.4232L46.8438 16.4232C47.4252 16.6942 48.1197 16.4475 48.3945 15.8691Z" fill="#08CFD4" stroke="#08CFD4" stroke-width="0.3"/>
<path d="M42.793 39.002L42.6521 38.9519C42.8935 38.2727 43.1835 37.603 43.514 36.9606L42.793 39.002ZM42.793 39.002L42.6521 38.9519C42.4376 39.5557 42.7573 40.2163 43.3636 40.4288C43.9549 40.6401 44.6369 40.332 44.8509 39.7218L44.7093 39.6721L44.8507 39.7224C45.0576 39.14 45.3065 38.5651 45.59 38.014C45.8835 37.4437 45.6549 36.7463 45.0815 36.4561L45.0139 36.5897M42.793 39.002L45.0139 36.5897M45.0139 36.5897L45.0815 36.4561C44.5086 36.1661 43.8069 36.391 43.514 36.9606L45.0139 36.5897Z" fill="#08CFD4" stroke="#08CFD4" stroke-width="0.3"/>
<path d="M55.1621 30.6452L55.1621 30.6452C54.5537 30.7793 53.9482 30.9557 53.3627 31.1691C53.2304 31.2174 53.0946 31.2403 52.9612 31.2403C52.4871 31.2403 52.0407 30.9508 51.8668 30.482L51.8667 30.4819C51.6441 29.8807 51.9553 29.2154 52.5591 28.9952L52.5591 28.9952C53.2417 28.7464 53.9475 28.541 54.657 28.3846L55.1621 30.6452ZM55.1621 30.6452C55.7899 30.5068 56.1875 29.8889 56.0474 29.2636M55.1621 30.6452L56.0474 29.2636M56.0474 29.2636C55.9075 28.6387 55.2841 28.2461 54.657 28.3846L56.0474 29.2636Z" fill="#08CFD4" stroke="#08CFD4" stroke-width="0.3"/>
<path d="M48.119 31.4414L48.119 31.4414C48.6268 31.05 49.3587 31.1403 49.7539 31.6449L48.119 31.4414ZM48.119 31.4414C47.5461 31.883 46.9973 32.3668 46.4873 32.8791L46.4873 32.8791M48.119 31.4414L46.4873 32.8791M46.4873 32.8791C46.0345 33.334 46.0392 34.0677 46.4981 34.5169C46.7252 34.7394 47.0214 34.8502 47.3166 34.8502C47.6168 34.8502 47.9177 34.7355 48.1457 34.5063L46.4873 32.8791ZM48.1457 34.5063C48.5842 34.0657 49.0563 33.6498 49.5488 33.27C50.0575 32.8778 50.1497 32.1501 49.754 31.645L48.1457 34.5063Z" fill="#08CFD4" stroke="#08CFD4" stroke-width="0.3"/>
</svg>
