<?xml version="1.0" encoding="iso-8859-1"?>
<!-- Generator: Adobe Illustrator 19.0.0, SVG Export Plug-In . SVG Version: 6.00 Build 0)  -->
<svg version="1.1" id="Capa_1" xmlns="http://www.w3.org/2000/svg" xmlns:xlink="http://www.w3.org/1999/xlink" x="0px" y="0px"
	 viewBox="0 0 512 512" style="enable-background:new 0 0 512 512;" xml:space="preserve">
<path style="fill:#39B54A;" d="M85.333,42.667h341.333c23.561,0,42.667,19.106,42.667,42.667v341.333
	c0,23.561-19.106,42.667-42.667,42.667H85.333c-23.561,0-42.667-19.106-42.667-42.667V85.333
	C42.667,61.773,61.773,42.667,85.333,42.667z"/>
<g>
	<rect x="85.333" y="85.333" style="fill:#FBB03B;" width="34.133" height="34.133"/>
	<rect x="392.533" y="153.6" style="fill:#FBB03B;" width="34.133" height="34.133"/>
	<rect x="298.667" y="401.067" style="fill:#FBB03B;" width="34.133" height="34.133"/>
	<rect x="392.533" y="273.067" style="fill:#FBB03B;" width="34.133" height="34.133"/>
	<rect x="119.467" y="384" style="fill:#FBB03B;" width="34.133" height="34.133"/>
</g>
<g>
	<rect x="68.267" y="401.067" style="fill:#006837;" width="17.067" height="17.067"/>
	<rect x="119.467" y="324.267" style="fill:#006837;" width="17.067" height="17.067"/>
	<rect x="102.4" y="153.6" style="fill:#006837;" width="17.067" height="17.067"/>
	<rect x="213.333" y="93.867" style="fill:#006837;" width="17.067" height="17.067"/>
	<rect x="392.533" y="68.267" style="fill:#006837;" width="17.067" height="17.067"/>
	<rect x="238.933" y="409.6" style="fill:#006837;" width="17.067" height="17.067"/>
	<rect x="418.133" y="418.133" style="fill:#006837;" width="17.067" height="17.067"/>
	<rect x="358.4" y="358.4" style="fill:#006837;" width="17.067" height="17.067"/>
	<rect x="401.067" y="221.867" style="fill:#006837;" width="17.067" height="17.067"/>
</g>
<g>
	<rect x="324.267" y="76.8" style="fill:#FBB03B;" width="34.133" height="34.133"/>
	<rect x="76.8" y="204.8" style="fill:#FBB03B;" width="34.133" height="34.133"/>
</g>
<g>
	<path style="fill:#39B54A;" d="M110.933,512h-25.6C38.229,511.949,0.051,473.771,0,426.667V315.733h17.067v110.933
		c0.043,37.683,30.583,68.224,68.267,68.267h25.6V512z"/>
	<rect y="281.6" style="fill:#39B54A;" width="17.067" height="17.067"/>
	<path style="fill:#39B54A;" d="M512,196.267h-17.067V85.333c-0.043-37.683-30.583-68.224-68.267-68.267h-25.6V0h25.6
		C473.771,0.051,511.949,38.229,512,85.333V196.267z"/>
	<rect x="494.933" y="213.333" style="fill:#39B54A;" width="17.067" height="17.067"/>
</g>
<g>
	<path style="fill:#F8CF26;" d="M119.467,93.867v17.067h42.667c2.261,0,4.437-0.896,6.033-2.5l65.766-65.766h-24.132l-51.2,51.2
		H119.467z"/>
	<path style="fill:#F8CF26;" d="M418.133,346.334V307.2h-17.067v42.667c0,2.261,0.896,4.437,2.5,6.033l65.766,65.766v-24.132
		L418.133,346.334z"/>
	<path style="fill:#F8CF26;" d="M401.067,110.933V153.6h17.067v-38.272l50.577-36.13c-0.828-5.914-2.901-11.58-6.076-16.631
		l-58.027,41.421C402.381,105.6,401.058,108.186,401.067,110.933z"/>
	<path style="fill:#F8CF26;" d="M187.733,392.533H153.6V409.6h29.397l37.342,59.733h20.122l-45.491-72.789
		C193.408,394.052,190.677,392.533,187.733,392.533z"/>
	<path style="fill:#F8CF26;" d="M384,409.6h-51.2v17.067h42.667v42.667h17.067v-51.2C392.533,413.423,388.71,409.6,384,409.6z"/>
	<path style="fill:#F8CF26;" d="M273.067,102.4h51.2V85.333H281.6V42.667h-17.067v51.2C264.533,98.577,268.356,102.4,273.067,102.4z
		"/>
	<path style="fill:#F8CF26;" d="M102.4,307.2v-68.267H85.333v62.993L42.667,323.26v19.081l55.014-27.46
		C100.591,313.429,102.417,310.451,102.4,307.2z"/>
</g>
<path style="fill:#E6E6E6;" d="M256,136.533l-102.4,51.2v76.689c0,54.229,39.211,100.506,92.698,109.423l9.702,1.621l9.702-1.621
	c53.487-8.917,92.698-55.194,92.698-109.423v-76.689L256,136.533z"/>
<path style="fill:#0071BC;" d="M324.267,264.533c0-0.179,0-0.35,0-0.529v-50.671L256,179.2v85.333H324.267z"/>
<path style="fill:#29ABE2;" d="M256,179.2l-68.267,34.133v50.671c0,0.179,0,0.35,0,0.529H256V179.2z"/>
<path style="fill:#0071BC;" d="M187.733,264.533c0.265,39.1,29.466,71.953,68.267,76.8v-76.8H187.733z"/>
<path style="fill:#29ABE2;" d="M256,264.533v76.8c38.801-4.847,68.002-37.7,68.267-76.8H256z"/>
<g>
</g>
<g>
</g>
<g>
</g>
<g>
</g>
<g>
</g>
<g>
</g>
<g>
</g>
<g>
</g>
<g>
</g>
<g>
</g>
<g>
</g>
<g>
</g>
<g>
</g>
<g>
</g>
<g>
</g>
</svg>
