<svg width="70" height="70" viewBox="0 0 70 70" fill="none" xmlns="http://www.w3.org/2000/svg">
<g clip-path="url(#clip0)">
<path d="M16.2702 44.7068C17.4028 44.7068 18.321 43.7886 18.321 42.656C18.321 41.5234 17.4028 40.6052 16.2702 40.6052C9.5608 40.6052 4.10233 35.1468 4.10233 28.4373C4.10233 20.4474 11.6742 14.6291 19.3956 16.6749C20.5559 16.9821 21.7325 16.2307 21.9406 15.0479C23.0561 8.7051 28.5486 4.10154 35.0006 4.10154C40.858 4.10154 45.9242 7.89614 47.6429 13.3416C45.6394 14.1492 43.8002 15.3597 42.2267 16.9332C41.4258 17.7341 41.4258 19.0325 42.2267 19.8334C43.0274 20.6343 44.326 20.6343 45.1269 19.8334C48.5429 16.4172 53.503 15.4495 57.7879 16.9603C62.5088 18.6429 65.8988 23.1109 65.8988 28.4375C65.8988 35.1469 60.4404 40.6054 53.7309 40.6054C52.5984 40.6054 51.6802 41.5236 51.6802 42.6561C51.6802 43.7887 52.5984 44.7069 53.7309 44.7069C62.702 44.7069 70.0004 37.4085 70.0004 28.4375C70.0004 18.4736 61.1968 11.0275 51.6154 12.3016C49.4264 5.06253 42.7406 0 35.0006 0C27.2604 0 20.5747 5.06239 18.3857 12.3015C8.82717 11.0304 0.000793457 18.4542 0.000793457 28.4373C0.000793457 37.4084 7.29921 44.7068 16.2702 44.7068Z" fill="#08CFD4"/>
<path d="M45.3907 31.582C44.711 30.676 43.4258 30.4924 42.5197 31.1719L37.0509 35.2734V24.0625C37.0509 22.9299 36.1327 22.0117 35.0001 22.0117C33.8675 22.0117 32.9493 22.9299 32.9493 24.0625V35.2734L27.4806 31.1719C26.5747 30.4922 25.2891 30.676 24.6095 31.582C23.9299 32.4881 24.1136 33.7735 25.0197 34.4531L33.7697 41.0156C34.452 41.5271 35.3947 41.5649 36.1188 41.0926C36.2277 41.0214 35.7599 41.3688 44.9806 34.4531C45.8866 33.7735 46.0702 32.4881 45.3907 31.582Z" fill="#08CFD4"/>
<path d="M42.5197 42.109L35.0001 47.7487L27.4806 42.109C26.5747 41.4294 25.2891 41.6131 24.6095 42.5192C23.9299 43.4252 24.1136 44.7106 25.0197 45.3903L33.7697 51.9528C34.4988 52.4996 35.5013 52.4996 36.2306 51.9528L44.9806 45.3903C45.8866 44.7106 46.0704 43.4252 45.3907 42.5192C44.711 41.6131 43.4258 41.4295 42.5197 42.109Z" fill="#08CFD4"/>
<path d="M64.5311 61.3865H41.0882C40.2302 58.8462 37.8262 57.0115 35.0001 57.0115C32.174 57.0115 29.7699 58.8462 28.9119 61.3865H5.46898C4.33641 61.3865 3.41821 62.3047 3.41821 63.4372C3.41821 64.5698 4.33641 65.488 5.46898 65.488H28.9031C29.2098 66.4223 29.7244 67.2864 30.426 68.0184C33.8724 71.6132 39.6003 70.0485 41.097 65.488H64.5311C65.6637 65.488 66.5819 64.5698 66.5819 63.4372C66.5819 62.3047 65.6637 61.3865 64.5311 61.3865ZM35.0001 65.8981C33.7619 65.8981 32.6759 64.7482 32.6759 63.4372C32.6759 62.1556 33.7185 61.113 35.0001 61.113C36.2817 61.113 37.3243 62.1556 37.3243 63.4372C37.3243 64.7482 36.238 65.8981 35.0001 65.8981Z" fill="#08CFD4"/>
</g>
<defs>
<clipPath id="clip0">
<rect width="70" height="70" fill="white"/>
</clipPath>
</defs>
</svg>
