<svg width="70" height="70" viewBox="0 0 70 70" fill="none" xmlns="http://www.w3.org/2000/svg">
<path d="M17.9787 64.5312H8.29809C7.13079 64.5312 6.42655 63.8798 6.11073 63.4914C5.5655 62.8206 5.35426 61.9478 5.53159 61.0962C8.3711 47.457 20.4078 37.4963 34.3034 37.1731C34.5348 37.1818 34.7668 37.1875 35.0002 37.1875C35.2356 37.1875 35.4697 37.1816 35.7032 37.1729C39.1011 37.2504 42.4201 37.8893 45.5792 39.0756C46.9929 39.6067 48.5694 38.8907 49.1003 37.4769C49.6312 36.0633 48.9154 34.4868 47.5016 33.9559C47.049 33.7858 46.5931 33.6267 46.1351 33.4757C50.6607 30.081 53.594 24.6735 53.594 18.5938C53.594 8.34121 45.2529 0 35.0002 0C24.7475 0 16.4065 8.34121 16.4065 18.5938C16.4065 24.679 19.3448 30.0907 23.8772 33.4849C19.7249 34.8518 15.8284 36.9775 12.4184 39.7824C6.16596 44.9254 1.81872 52.0989 0.177684 59.9817C-0.336651 62.4516 0.279403 64.9886 1.86794 66.9417C3.44841 68.8853 5.79217 70 8.29809 70H17.9787C19.4889 70 20.7131 68.7758 20.7131 67.2656C20.7131 65.7554 19.4889 64.5312 17.9787 64.5312ZM21.8752 18.5938C21.8752 11.3565 27.763 5.46875 35.0002 5.46875C42.2374 5.46875 48.1252 11.3565 48.1252 18.5938C48.1252 25.6166 42.5807 31.3685 35.6392 31.703C35.4264 31.6992 35.2135 31.6959 35.0002 31.6959C34.7864 31.6959 34.5727 31.6991 34.3591 31.7029C27.4186 31.3674 21.8752 25.6159 21.8752 18.5938Z" fill="#08CFD4"/>
<path d="M67.9067 47.1142C66.7362 44.4961 64.0997 42.7997 61.1834 42.793H52.656C52.6498 42.793 52.6441 42.793 52.6378 42.793C49.5616 42.793 46.8778 44.6059 45.7979 47.415C45.6542 47.7888 45.4785 48.2597 45.2952 48.8086H27.3924C26.6532 48.8086 25.9455 49.1079 25.4305 49.6382L20.7334 54.4764C19.6989 55.542 19.704 57.2385 20.745 58.2977L25.5302 63.1665C26.0442 63.6896 26.747 63.9842 27.4803 63.9842H36.367C37.8772 63.9842 39.1014 62.7601 39.1014 61.2499C39.1014 59.7397 37.8772 58.5155 36.367 58.5155H28.6269L26.5176 56.3693L28.5488 54.2773H47.3464C48.6061 54.2773 49.7027 53.4167 50.0023 52.1932C50.2235 51.2899 50.501 50.4215 50.9024 49.3773C51.1671 48.6888 51.8318 48.2617 52.6444 48.2617C52.6461 48.2617 52.6479 48.2617 52.6497 48.2617H61.177C61.9503 48.2635 62.6158 48.6791 62.914 49.3462C63.648 50.9884 64.5245 53.5309 64.5311 56.3169C64.5377 59.1236 63.6621 61.7243 62.9262 63.4118C62.6295 64.0924 61.9583 64.5312 61.209 64.5312C61.2075 64.5312 61.206 64.5312 61.2045 64.5312H52.5741C51.8176 64.5295 51.109 64.0428 50.811 63.3202C50.4912 62.5449 50.2141 61.6596 49.9637 60.6136C49.6122 59.1449 48.1362 58.2393 46.6681 58.5907C45.1993 58.9422 44.2937 60.4178 44.6452 61.8864C44.9625 63.2125 45.3258 64.3635 45.7555 65.4053C46.9038 68.1894 49.5753 69.9929 52.5678 69.9999H61.1982C61.204 69.9999 61.2095 69.9999 61.2154 69.9999C64.1345 69.9997 66.7726 68.2731 67.9392 65.5974C68.8842 63.4303 70.0087 60.0588 69.9998 56.3039C69.9911 52.5593 68.8567 49.2397 67.9067 47.1142Z" fill="#08CFD4"/>
<path d="M58.9258 59.0625C60.4359 59.0625 61.6601 57.8383 61.6601 56.3281C61.6601 54.818 60.4359 53.5938 58.9258 53.5938C57.4156 53.5938 56.1914 54.818 56.1914 56.3281C56.1914 57.8383 57.4156 59.0625 58.9258 59.0625Z" fill="#08CFD4"/>
</svg>
