<svg width="115" height="76" viewBox="0 0 115 76" fill="none" xmlns="http://www.w3.org/2000/svg">
<path fill-rule="evenodd" clip-rule="evenodd" d="M3 70.0185V59H7V70.0185C7 71.123 7.66667 72.2222 9 72.2222C10.3333 72.2222 11 71.123 11 70.0185V59H15C14.9998 62.4619 15 67.0785 15 70.0185C15 73.3306 12.312 76 9 76C5.68736 76 3 73.3306 3 70.0185Z" fill="white"/>
<path fill-rule="evenodd" clip-rule="evenodd" d="M26 75.9861V63H23V59H33V63L30 62.9861V75.9861L26 75.9861Z" fill="white"/>
<path fill-rule="evenodd" clip-rule="evenodd" d="M42 67.4994C42 62.8083 45.8079 59 50.4991 59C55.1921 59 59 62.8083 59 67.4994C59 72.1917 55.1921 76 50.4991 76C45.8079 76 42 72.1917 42 67.4994ZM54.9993 67.4994C54.9993 65.0166 52.9838 63.0003 50.4991 63.0003C48.0156 63.0003 46.0001 65.0166 46.0001 67.4994C46.0001 69.9841 48.0156 71.999 50.4991 71.999C52.9838 71.999 54.9993 69.9841 54.9993 67.4994Z" fill="white"/>
<path fill-rule="evenodd" clip-rule="evenodd" d="M87 59V76H91V59H87Z" fill="white"/>
<path fill-rule="evenodd" clip-rule="evenodd" d="M108 76V72.0201L104 71.9799V75.9799L100 76V64.9815C100 61.6684 102.689 59 106 59C109.311 59 112 61.6684 112 64.9815V76H108ZM108 69.0201V65.0016C108 63.8966 107.104 62.9994 106 62.9994C104.896 62.9994 104 63.7823 104 64.8873V68.9799L108 69.0201Z" fill="white"/>
<path fill-rule="evenodd" clip-rule="evenodd" d="M34 25.5313C34 12.5636 44.5157 2 57.5098 2C70.488 2 81 12.5661 81 25.5313C81 38.4781 70.4763 49 57.5098 49C44.5274 49 34 38.4806 34 25.5313ZM73.5101 25.5313C73.5101 16.68 66.3305 9.48744 57.5098 9.48744C48.6683 9.48744 41.4899 16.6824 41.4899 25.5313C41.4899 34.3385 48.6566 41.5126 57.5098 41.5126C66.3421 41.5126 73.5101 34.3409 73.5101 25.5313Z" fill="white"/>
<path fill-rule="evenodd" clip-rule="evenodd" d="M24.7915 45.5188C26.1824 44.073 26.1733 41.7355 24.7698 40.3026L10.1715 25.3901L24.7698 10.4844C26.1733 9.05147 26.183 6.71396 24.7921 5.26816C23.4007 3.82174 21.1326 3.81129 19.7285 5.24479L0 25.3882L19.7279 45.5409C21.132 46.9744 23.4001 46.9646 24.7915 45.5188Z" fill="white"/>
<path fill-rule="evenodd" clip-rule="evenodd" d="M34.2775 49.2047C32.8524 47.7453 32.8524 45.3758 34.2768 43.9165L75.5642 1.58174C76.9875 0.121798 79.2993 0.121179 80.7225 1.58113C82.1476 3.04046 82.1477 5.40995 80.7232 6.86928L39.4358 49.204C38.0125 50.664 35.7007 50.6646 34.2775 49.2047Z" fill="#39DB7F"/>
<path fill-rule="evenodd" clip-rule="evenodd" d="M90.2085 45.5188C88.8176 44.073 88.8267 41.7355 90.2302 40.3026L104.829 25.3901L90.2302 10.4844C88.8267 9.05147 88.8171 6.71396 90.2079 5.26816C91.5993 3.82174 93.8674 3.81129 95.2716 5.24479L115 25.3882L95.2722 45.5409C93.8681 46.9744 91.5999 46.9646 90.2085 45.5188Z" fill="white"/>
<path fill-rule="evenodd" clip-rule="evenodd" d="M68 59V76H72V69.0741H73.625C76.0512 69.0741 78 66.628 78 64.0005C78 61.2843 76.0273 59.0724 73.5721 59.0032V59H68ZM73.3125 65.9259C74.2852 65.8875 74.875 65.1168 74.875 64.037C74.875 62.9333 74.3161 62.1481 73.3125 62.1481H72V65.9259H73.3125Z" fill="white"/>
<path d="M111.502 -5.13517e-07C112.09 -5.13517e-07 112.664 0.151535 113.223 0.454605C113.783 0.754583 114.219 1.18599 114.531 1.74884C114.844 2.30859 115 2.89309 115 3.50232C115 4.10537 114.845 4.68522 114.536 5.24188C114.23 5.79854 113.799 6.2315 113.242 6.54075C112.688 6.84692 112.108 7 111.502 7C110.896 7 110.315 6.84692 109.758 6.54075C109.205 6.2315 108.773 5.79854 108.464 5.24188C108.155 4.68522 108 4.10537 108 3.50232C108 2.89309 108.156 2.30859 108.469 1.74884C108.784 1.18599 109.222 0.754583 109.781 0.454605C110.341 0.151535 110.915 -5.13517e-07 111.502 -5.13517e-07ZM111.502 0.579854C111.011 0.579854 110.531 0.706648 110.064 0.960238C109.6 1.21074 109.237 1.57102 108.974 2.04109C108.711 2.50806 108.58 2.99514 108.58 3.50232C108.58 4.00641 108.708 4.49039 108.965 4.95427C109.225 5.41506 109.586 5.77535 110.05 6.03512C110.514 6.2918 110.998 6.42015 111.502 6.42015C112.006 6.42015 112.49 6.2918 112.954 6.03512C113.418 5.77535 113.778 5.41506 114.035 4.95427C114.292 4.49039 114.42 4.00641 114.42 3.50232C114.42 2.99514 114.289 2.50806 114.026 2.04109C113.766 1.57102 113.403 1.21074 112.936 0.960238C112.469 0.706648 111.991 0.579854 111.502 0.579854ZM110.154 5.38461V1.61538H111.266C111.708 1.61538 112.023 1.70554 112.221 1.77667C112.419 1.84471 112.577 1.96532 112.694 2.1385C112.812 2.31168 112.871 2.49569 112.871 2.69052C112.871 2.96576 112.772 3.20543 112.574 3.40954C112.379 3.61365 112.119 3.72808 111.795 3.75282C111.928 3.80848 112.034 3.87497 112.115 3.95229C112.266 4.10073 112.452 4.34968 112.671 4.69914L113.115 5.38462H112.308L112.054 4.84294C111.791 4.37597 111.58 4.08372 111.419 3.9662C111.307 3.87961 111.175 3.76923 110.962 3.76923L110.692 3.75282V5.38461H110.154ZM110.692 3.23077H111.231C111.583 3.23077 111.904 3.26419 112.031 3.15904C112.161 3.0539 112.221 2.86371 112.221 2.69052C112.221 2.48665 112.055 2.3158 111.873 2.24519C111.765 2.2019 111.528 2.1385 111.231 2.1385H110.692V3.23077Z" fill="white"/>
</svg>
