<svg width="97" height="64" viewBox="0 0 97 64" fill="none" xmlns="http://www.w3.org/2000/svg">
<g clip-path="url(#clip0)">
<path fill-rule="evenodd" clip-rule="evenodd" d="M2.53043 58.9629V49.6842H5.90434V58.9629C5.90434 59.893 6.46666 60.8187 7.5913 60.8187C8.71591 60.8187 9.27825 59.893 9.27825 58.9629V49.6842H12.6522C12.652 52.5995 12.6522 56.4872 12.6522 58.9629C12.6522 61.7521 10.3849 64 7.5913 64C4.79716 64 2.53043 61.7521 2.53043 58.9629Z" fill="white"/>
<path fill-rule="evenodd" clip-rule="evenodd" d="M21.9304 63.9883V53.0526H19.4V49.6842H27.8348V53.0526L25.3043 53.0409V63.9883H21.9304Z" fill="white"/>
<path fill-rule="evenodd" clip-rule="evenodd" d="M35.4261 56.8416C35.4261 52.8912 38.638 49.6842 42.5949 49.6842C46.5533 49.6842 49.7652 52.8912 49.7652 56.8416C49.7652 60.793 46.5533 64 42.5949 64C38.638 64 35.4261 60.793 35.4261 56.8416ZM46.3907 56.8416C46.3907 54.7508 44.6907 53.0529 42.5949 53.0529C40.5001 53.0529 38.8001 54.7508 38.8001 56.8416C38.8001 58.934 40.5001 60.6307 42.5949 60.6307C44.6907 60.6307 46.3907 58.934 46.3907 56.8416Z" fill="white"/>
<path fill-rule="evenodd" clip-rule="evenodd" d="M73.3826 49.6842V64H76.7565V49.6842H73.3826Z" fill="white"/>
<path fill-rule="evenodd" clip-rule="evenodd" d="M91.0957 64V60.6485L87.7218 60.6146V63.9831L84.3478 64V54.7213C84.3478 51.9313 86.616 49.6842 89.4087 49.6842C92.2015 49.6842 94.4696 51.9313 94.4696 54.7213V64H91.0957ZM91.0957 58.1222V54.7382C91.0957 53.8077 90.3399 53.0521 89.4087 53.0521C88.4775 53.0521 87.7218 53.7114 87.7218 54.6419V58.0883L91.0957 58.1222Z" fill="white"/>
<path fill-rule="evenodd" clip-rule="evenodd" d="M28.6783 21.5C28.6783 10.5799 37.548 1.6842 48.5083 1.6842C59.4551 1.6842 68.3217 10.582 68.3217 21.5C68.3217 32.4026 59.4452 41.2631 48.5083 41.2631C37.5579 41.2631 28.6783 32.4047 28.6783 21.5ZM62.0042 21.5C62.0042 14.0463 55.9483 7.98942 48.5083 7.98942C41.0506 7.98942 34.9958 14.0483 34.9958 21.5C34.9958 28.9166 41.0408 34.958 48.5083 34.958C55.9581 34.958 62.0042 28.9186 62.0042 21.5Z" fill="white"/>
<path fill-rule="evenodd" clip-rule="evenodd" d="M20.9111 38.3316C22.0843 37.1141 22.0766 35.1457 20.8928 33.939L8.57944 21.3811L20.8928 8.82897C22.0766 7.62229 22.0848 5.65386 20.9116 4.43635C19.738 3.21831 17.8249 3.20951 16.6406 4.41667L0 21.3795L16.6401 38.3502C17.8244 39.5574 19.7375 39.5491 20.9111 38.3316Z" fill="white"/>
<path fill-rule="evenodd" clip-rule="evenodd" d="M28.9123 41.4355C27.7103 40.2066 27.7103 38.2112 28.9117 36.9823L63.7368 1.332C64.9373 0.102571 66.8872 0.10205 68.0877 1.33148C69.2897 2.56039 69.2898 4.55575 68.0883 5.78466L33.2632 41.4349C32.0627 42.6644 30.1128 42.6649 28.9123 41.4355Z" fill="#39DB7F"/>
<path fill-rule="evenodd" clip-rule="evenodd" d="M76.0889 38.3316C74.9157 37.1141 74.9234 35.1457 76.1072 33.939L88.421 21.3811L76.1072 8.82897C74.9234 7.62229 74.9153 5.65386 76.0884 4.43635C77.262 3.21831 79.1751 3.20951 80.3595 4.41667L97 21.3795L80.36 38.3502C79.1757 39.5574 77.2625 39.5491 76.0889 38.3316Z" fill="white"/>
<path fill-rule="evenodd" clip-rule="evenodd" d="M57.3565 49.6842V64H60.7304V58.1677H62.1011C64.1475 58.1677 65.7913 56.1078 65.7913 53.8952C65.7913 51.6078 64.1274 49.7452 62.0565 49.6869V49.6842H57.3565ZM61.8375 55.5165C62.6579 55.4842 63.1554 54.8352 63.1554 53.9259C63.1554 52.9965 62.684 52.3352 61.8375 52.3352H60.7304V55.5165H61.8375Z" fill="white"/>
<path d="M94.0495 0C94.5455 0 95.0296 0.127609 95.5011 0.382826C95.9735 0.635439 96.3412 0.998729 96.6044 1.47271C96.8684 1.94408 97 2.43629 97 2.94932C97 3.45715 96.8693 3.94545 96.6086 4.41422C96.3505 4.88298 95.987 5.24758 95.5172 5.508C95.0499 5.76583 94.5607 5.89474 94.0495 5.89474C93.5384 5.89474 93.0483 5.76583 92.5785 5.508C92.112 5.24758 91.7476 4.88298 91.487 4.41422C91.2264 3.94545 91.0956 3.45715 91.0956 2.94932C91.0956 2.43629 91.2272 1.94408 91.4912 1.47271C91.7569 0.998729 92.1264 0.635439 92.5979 0.382826C93.0702 0.127609 93.5544 0 94.0495 0ZM94.0495 0.488299C93.6354 0.488299 93.2305 0.595072 92.8366 0.808622C92.4452 1.01957 92.139 1.32296 91.9172 1.71881C91.6954 2.11205 91.5849 2.52222 91.5849 2.94932C91.5849 3.37382 91.6928 3.78138 91.9096 4.17202C92.1289 4.56005 92.4334 4.86345 92.8248 5.08221C93.2161 5.29836 93.6244 5.40644 94.0495 5.40644C94.4746 5.40644 94.8829 5.29836 95.2742 5.08221C95.6656 4.86345 95.9693 4.56005 96.186 4.17202C96.4028 3.78138 96.5108 3.37382 96.5108 2.94932C96.5108 2.52222 96.4003 2.11205 96.1784 1.71881C95.9591 1.32296 95.653 1.01957 95.259 0.808622C94.8651 0.595072 94.462 0.488299 94.0495 0.488299ZM92.9125 4.53441V1.36032H93.8504C94.2233 1.36032 94.489 1.43624 94.656 1.49614C94.823 1.55344 94.9562 1.65501 95.0549 1.80084C95.1545 1.94668 95.2042 2.10163 95.2042 2.2657C95.2042 2.49748 95.1207 2.69931 94.9537 2.87119C94.7892 3.04307 94.5699 3.13944 94.2966 3.16027C94.4088 3.20714 94.4982 3.26313 94.5666 3.32824C94.6939 3.45325 94.8508 3.66289 95.0355 3.95717L95.41 4.53442H94.7293L94.5151 4.07827C94.2933 3.68503 94.1153 3.43892 93.9795 3.33996C93.885 3.26704 93.7737 3.17409 93.594 3.17409L93.3663 3.16027V4.53441H92.9125ZM93.3663 2.72065H93.8209C94.1178 2.72065 94.3886 2.74879 94.4957 2.66024C94.6054 2.57171 94.656 2.41155 94.656 2.2657C94.656 2.09402 94.5159 1.95015 94.3624 1.89069C94.2713 1.85423 94.0714 1.80084 93.8209 1.80084H93.3663V2.72065Z" fill="white"/>
</g>
<defs>
<clipPath id="clip0">
<rect width="97" height="64" fill="white"/>
</clipPath>
</defs>
</svg>
