<svg width="68" height="71" viewBox="0 0 68 71" fill="none" xmlns="http://www.w3.org/2000/svg">
<path d="M60.6736 21.5276H58.2634V2.04341C58.2634 1.51189 57.9505 1.02933 57.4629 0.809069C56.9754 0.588676 56.4031 0.671272 55.9988 1.02024L52.3781 4.14507C50.4884 5.77612 48.4463 7.28537 46.3089 8.63092C38.1923 13.7411 28.8138 16.4421 19.1874 16.4421H12.5299C5.82248 16.4421 0.365356 21.8232 0.365356 28.4374C0.365356 35.0517 5.82235 40.4328 12.5299 40.4328H15.7198V68.7717C15.7198 69.5206 16.3321 70.1279 17.087 70.1279H24.9292C27.6331 70.1279 29.833 67.9457 29.833 65.2634V59.5801H31.904C34.6122 59.5801 36.8153 57.3946 36.8153 54.7023C36.8153 52.0158 34.6122 49.8303 31.904 49.8303H29.833V41.5516C35.6536 42.7908 41.2284 45.0454 46.3089 48.2439C48.4465 49.5897 50.4884 51.0991 52.3781 52.7298L55.9988 55.8547C56.2526 56.0738 56.5726 56.1878 56.8964 56.1878C57.0882 56.1878 57.2814 56.1478 57.4628 56.0659C57.9503 55.8456 58.2633 55.3631 58.2633 54.8316V35.3475H60.6735C64.5117 35.3475 67.6344 32.2497 67.6344 28.4329C67.6345 24.6252 64.5119 21.5276 60.6736 21.5276ZM3.09987 28.4375C3.09987 23.319 7.33008 19.1547 12.53 19.1547H15.72V37.7205H12.5299C7.33008 37.7204 3.09987 33.5561 3.09987 28.4375ZM31.9042 52.5429C33.1044 52.5429 34.081 53.5116 34.081 54.7081C34.081 55.8988 33.1044 56.8676 31.9042 56.8676H29.8332V52.5429H31.9042ZM27.0988 65.2634C27.0988 66.45 26.1256 67.4154 24.9293 67.4154H18.4543V40.4329H19.1876C21.8508 40.4329 24.495 40.6397 27.0988 41.047V65.2634ZM55.529 51.8539L54.1728 50.6833C52.3678 49.1256 50.4318 47.6735 48.4087 46.3595V35.2554C48.4087 34.5064 47.7965 33.8991 47.0415 33.8991C46.2866 33.8991 45.6744 34.5064 45.6744 35.2554V44.6978C37.6192 40.126 28.5136 37.7205 19.1876 37.7205H18.4543V19.1547H19.1876C28.5138 19.1547 37.6193 16.7491 45.6744 12.1773V22.9931C45.6744 23.7422 46.2866 24.3494 47.0415 24.3494C47.7965 24.3494 48.4087 23.7422 48.4087 22.9931V10.5156C50.4316 9.20177 52.3678 7.74962 54.1728 6.19168L55.529 5.02122V51.8539ZM60.6736 32.6349H58.2634V24.2402H60.6736C63.0041 24.2402 64.9002 26.121 64.9002 28.4422C64.9002 30.7541 63.0041 32.6349 60.6736 32.6349Z" fill="#08CFD4"/>
<path d="M48.3035 28.6304C48.0831 28.1059 47.5427 27.7641 46.9689 27.7949C46.3989 27.8255 45.9011 28.2148 45.734 28.7552C45.5666 29.2966 45.7696 29.9017 46.2276 30.2382C46.6736 30.5658 47.2913 30.5912 47.7629 30.3008C48.3236 29.9556 48.5573 29.235 48.3035 28.6304Z" fill="#08CFD4"/>
</svg>
