<svg width="70" height="63" viewBox="0 0 70 63" fill="none" xmlns="http://www.w3.org/2000/svg">
<path d="M35 13.8481C34.2454 13.8481 33.6328 14.4558 33.6328 15.2043C33.6328 15.9529 34.2454 16.5605 35 16.5605C35.7546 16.5605 36.3672 15.9529 36.3672 15.2043C36.3672 14.4558 35.7546 13.8481 35 13.8481Z" fill="#08CFD4"/>
<path d="M12.3047 38.2607C13.0593 38.2607 13.6719 37.6531 13.6719 36.9045C13.6719 36.156 13.0593 35.5483 12.3047 35.5483C11.5501 35.5483 10.9375 36.156 10.9375 36.9045C10.9375 37.6531 11.5501 38.2607 12.3047 38.2607Z" fill="#08CFD4"/>
<path d="M45.9375 0.285156C33.6291 0.285156 23.5268 8.70353 22.7455 19.3073C11.0235 19.8906 0 28.2756 0 39.6168C0 44.3563 1.89056 48.9486 5.33203 52.5872C6.01295 55.3718 5.18623 58.3232 3.13492 60.3582C2.74399 60.746 2.62703 61.3293 2.83852 61.8363C3.05 62.3427 3.54828 62.6733 4.10156 62.6733C8.00072 62.6733 11.7583 61.1565 14.5504 58.4837C17.2704 59.4035 20.8192 59.9608 24.0625 59.9608C36.3693 59.9608 46.4705 51.5445 47.254 40.9429C50.1165 40.8168 53.0939 40.2923 55.4496 39.496C58.2417 42.1688 61.9993 43.6856 65.8984 43.6856C66.4517 43.6856 66.95 43.355 67.1615 42.8486C67.373 42.3415 67.256 41.7583 66.8651 41.3704C64.8138 39.3355 63.987 36.3841 64.668 33.5995C68.1094 29.9609 70 25.3686 70 20.6291C70 8.84499 58.1274 0.285156 45.9375 0.285156ZM24.0625 57.2483C20.8357 57.2483 17.1587 56.6199 14.6957 55.6478C14.168 55.439 13.5651 55.5763 13.1811 55.9921C11.5303 57.7823 9.38393 59.0305 7.04529 59.6043C8.33397 57.155 8.66295 54.2677 7.87895 51.5318C7.817 51.3162 7.70218 51.1191 7.54463 50.9586C4.44283 47.7894 2.73438 43.7614 2.73438 39.6168C2.73438 30.0594 12.5012 21.9854 24.0625 21.9854C34.9797 21.9854 44.5703 29.5164 44.5703 39.6168C44.5703 49.339 35.3706 57.2483 24.0625 57.2483ZM62.4554 31.9709C62.2978 32.1319 62.183 32.329 62.121 32.5441C61.3371 35.28 61.666 38.1673 62.9547 40.6166C60.6161 40.0433 58.4697 38.7946 56.8189 37.0044C56.4349 36.5891 55.832 36.4513 55.3043 36.6601C53.1697 37.5024 50.1245 38.0857 47.2497 38.2267C46.8502 33.0978 44.2712 28.2772 39.8621 24.6979H57.6953C58.4505 24.6979 59.0625 24.0908 59.0625 23.3417C59.0625 22.5925 58.4505 21.9854 57.6953 21.9854H35.6617C32.5583 20.4183 29.0736 19.5044 25.4868 19.3126C26.2724 10.2034 35.1447 2.99769 45.9375 2.99769C57.4988 2.99769 67.2656 11.0717 67.2656 20.6291C67.2656 24.7737 65.5572 28.8017 62.4554 31.9709Z" fill="#08CFD4"/>
<path d="M35 35.5483H17.7734C17.0183 35.5483 16.4062 36.1555 16.4062 36.9045C16.4062 37.6536 17.0183 38.2607 17.7734 38.2607H35C35.7552 38.2607 36.3672 37.6536 36.3672 36.9045C36.3672 36.1555 35.7552 35.5483 35 35.5483Z" fill="#08CFD4"/>
<path d="M35 43.6855H12.3047C11.5495 43.6855 10.9375 44.2927 10.9375 45.0417C10.9375 45.7908 11.5495 46.3979 12.3047 46.3979H35C35.7552 46.3979 36.3672 45.7908 36.3672 45.0417C36.3672 44.2927 35.7552 43.6855 35 43.6855Z" fill="#08CFD4"/>
<path d="M57.6953 13.8481H40.4688C39.7136 13.8481 39.1016 14.4553 39.1016 15.2043C39.1016 15.9534 39.7136 16.5605 40.4688 16.5605H57.6953C58.4505 16.5605 59.0625 15.9534 59.0625 15.2043C59.0625 14.4553 58.4505 13.8481 57.6953 13.8481Z" fill="#08CFD4"/>
</svg>
