<svg width="716" height="713" viewBox="0 0 716 713" fill="none" xmlns="http://www.w3.org/2000/svg">
<g filter="url(#filter0_d)">
<path d="M126.534 590.157C140.534 598.24 158.034 588.137 158.034 571.971L158.034 524.948C158.034 508.782 140.534 498.678 126.534 506.761L85.8102 530.273C71.8102 538.356 71.8103 558.563 85.8103 566.646L126.534 590.157Z" fill="url(#paint0_linear)"/>
<path d="M457.084 539.233C393.124 531.602 327.347 592.436 300.879 605.066C274.41 617.697 147.485 652.239 91.0431 384.562C38.9756 137.632 284.054 -32.4451 382.393 83.4124C437.877 148.781 430.614 166.888 583.803 170.822C736.991 174.757 650.137 377.589 623.051 435.844C595.965 494.099 537.033 548.773 457.084 539.233Z" fill="#F4F8FB"/>
<g filter="url(#filter1_f)">
<path d="M153.774 103.308C152.514 111.682 160.791 118.279 168.673 115.184L190.807 106.492C198.688 103.396 200.264 92.9294 193.642 87.6513L175.047 72.8292C168.426 67.551 158.574 71.4202 157.313 79.7937L153.774 103.308Z" fill="url(#paint1_linear)"/>
</g>
<g filter="url(#filter2_f)">
<path d="M569.879 396.284C561.411 396.284 556.119 405.451 560.352 412.784L594.584 472.076C598.818 479.409 609.403 479.409 613.637 472.076L647.869 412.784C652.103 405.451 646.81 396.284 638.343 396.284L569.879 396.284Z" fill="url(#paint2_linear)"/>
</g>
<path d="M307.62 229.61C225.475 332.642 163.779 238.12 113.141 252.495C62.5026 266.87 20.2704 332.627 114.769 459.697C210.682 588.671 300.238 651.474 404.428 485.415C437.065 433.398 467.89 393.485 548.273 334.328C645.588 262.71 489.867 157.136 436.007 153.306C382.147 149.476 346.701 180.592 307.62 229.61Z" fill="url(#paint3_linear)"/>
</g>
<defs>
<filter id="filter0_d" x="0" y="0.863281" width="716" height="711.837" filterUnits="userSpaceOnUse" color-interpolation-filters="sRGB">
<feFlood flood-opacity="0" result="BackgroundImageFix"/>
<feColorMatrix in="SourceAlpha" type="matrix" values="0 0 0 0 0 0 0 0 0 0 0 0 0 0 0 0 0 0 127 0"/>
<feOffset dy="4"/>
<feGaussianBlur stdDeviation="2"/>
<feColorMatrix type="matrix" values="0 0 0 0 0 0 0 0 0 0 0 0 0 0 0 0 0 0 0.25 0"/>
<feBlend mode="normal" in2="BackgroundImageFix" result="effect1_dropShadow"/>
<feBlend mode="normal" in="SourceGraphic" in2="effect1_dropShadow" result="shape"/>
</filter>
<filter id="filter1_f" x="127.884" y="53.9624" width="86.3729" height="85.8623" filterUnits="userSpaceOnUse" color-interpolation-filters="sRGB">
<feFlood flood-opacity="0" result="BackgroundImageFix"/>
<feBlend mode="normal" in="SourceGraphic" in2="BackgroundImageFix" result="shape"/>
<feGaussianBlur stdDeviation="6" result="effect1_foregroundBlur"/>
</filter>
<filter id="filter2_f" x="525.728" y="350.598" width="139.649" height="143.018" filterUnits="userSpaceOnUse" color-interpolation-filters="sRGB">
<feFlood flood-opacity="0" result="BackgroundImageFix"/>
<feBlend mode="normal" in="SourceGraphic" in2="BackgroundImageFix" result="shape"/>
<feGaussianBlur stdDeviation="6" result="effect1_foregroundBlur"/>
</filter>
<linearGradient id="paint0_linear" x1="150.732" y1="603.137" x2="97.5" y2="518" gradientUnits="userSpaceOnUse">
<stop stop-color="#24AEF7"/>
<stop offset="1" stop-color="#22AAF4" stop-opacity="0"/>
</linearGradient>
<linearGradient id="paint1_linear" x1="152.064" y1="117.653" x2="185.794" y2="66.7731" gradientUnits="userSpaceOnUse">
<stop stop-color="#1C9CEC"/>
<stop offset="1" stop-color="#22AAF4" stop-opacity="0"/>
</linearGradient>
<linearGradient id="paint2_linear" x1="558.769" y1="397.049" x2="654.057" y2="441.447" gradientUnits="userSpaceOnUse">
<stop stop-color="#24ADF6"/>
<stop offset="1" stop-color="#2ABBFF" stop-opacity="0"/>
</linearGradient>
<linearGradient id="paint3_linear" x1="172.42" y1="95.8529" x2="417.207" y2="517.777" gradientUnits="userSpaceOnUse">
<stop stop-color="#1FA2EF"/>
<stop offset="1" stop-color="#2ABBFF" stop-opacity="0"/>
</linearGradient>
</defs>
</svg>
