<?xml version="1.0" encoding="utf-8"?>
<!-- Generator: Adobe Illustrator 23.0.0, SVG Export Plug-In . SVG Version: 6.00 Build 0)  -->
<svg version="1.1" id="Capa_1" xmlns="http://www.w3.org/2000/svg" xmlns:xlink="http://www.w3.org/1999/xlink" x="0px" y="0px"
	 viewBox="0 0 512 512" style="enable-background:new 0 0 512 512;" xml:space="preserve">
<style type="text/css">
	.st0{fill:#FDE53F;}
	.st1{fill:#FED330;}
	.st2{fill:none;stroke:#FD9E28;stroke-width:5;stroke-miterlimit:10;}
	.st3{display:none;}
	.st4{display:inline;fill:#FD9E28;}
	.st5{display:inline;}
	.st6{fill:#FD8D34;}
	.st7{fill:#FFDFCF;}
	.st8{fill:#FFCEBF;}
	.st9{fill:#FD9E28;}
</style>
<g>
	<g>
		<g>
			<path class="st0" d="M354.6,314.8c-86.9,0-157.4-70.5-157.4-157.4S267.7,0,354.6,0S441.5,314.8,354.6,314.8z"/>
			<g>
				<path class="st1" d="M354.6,0v314.8c86.9,0,157.4-70.5,157.4-157.4S441.5,0,354.6,0L354.6,0z"/>
			</g>
			<circle class="st2" cx="353.9" cy="157.4" r="145.8"/>
		</g>
		<g class="st3">
			<path class="st4" d="M398.4,88.3V64.2h-30v24h-27v-24h-30v24h-25v30h25v78.3h-25v30h25v24h30v-24h27v24h30v-24.2
				c21.3-2,38.1-20,38.1-41.9c0-10.3-3.7-19.7-9.9-27.1c6.2-7.3,9.9-16.8,9.9-27.1C436.5,108.3,419.7,90.3,398.4,88.3z M394.4,118.1
				c6.7,0,12.1,5.4,12.1,12.1c0,6.7-5.4,12.1-12.1,12.1h-53v-24.2L394.4,118.1z M394.4,196.4h-53v-24.2h53c6.7,0,12.1,5.4,12.1,12.1
				C406.5,191,401.1,196.4,394.4,196.4L394.4,196.4z"/>
			<g class="st5">
				<path class="st6" d="M368.4,250.4h30v-24.2c21.3-2,38.1-20,38.1-41.9c0-10.3-3.7-19.7-9.9-27.1c6.2-7.3,9.9-16.8,9.9-27.1
					c0-21.9-16.8-39.9-38.1-41.9V64.2h-30v24h-13.8v30h39.8c6.7,0,12.1,5.4,12.1,12.1c0,6.7-5.4,12.1-12.1,12.1h-39.8v30h39.8
					c6.7,0,12.1,5.4,12.1,12.1c0,6.7-5.4,12.1-12.1,12.1h-39.8v30h13.8V250.4z"/>
			</g>
		</g>
	</g>
	<g>
		<path class="st7" d="M0,482.3l107.5-35.9l174.4,65.5l229.9-47.4l-1.2-5c-9.3-38.8-47.5-63.4-86.6-55.9l-124.9,24L55.5,330.9
			L0,349.8L0,482.3z"/>
		<path class="st8" d="M55.5,330.9l48.2-17c32.3-11.4,67.8-9.9,99,4.2l101.6,46c17.1,7.7,24.7,27.8,17,45
			c-7.6,17-27.5,24.7-44.6,17.4L55.5,330.9z"/>
	</g>
</g>
<g>
	<path class="st9" d="M311.2,182.1c-0.5,10.4-3.7,18.4-9.6,23.9c-5.4,5.1-12.2,7.6-20.5,7.6c-9.8,0-17.6-3.6-23.3-10.8
		c-3.4-4.2-5.6-9.5-6.5-15.9c-0.9-6.4-1.4-15.7-1.4-27.8c0-12.1,0.5-21.3,1.4-27.8c0.9-6.4,3.1-11.7,6.5-15.9
		c5.8-7.2,13.6-10.8,23.3-10.8c8.3,0,15.1,2.5,20.5,7.6c5.9,5.6,9.1,13.5,9.6,23.8H290c-0.2-3.8-0.7-6.5-1.6-8.2
		c-1.3-2.7-3.7-4-7.2-4c-3.4,0-5.8,1.4-7.2,4.2c-1.9,3.7-2.8,14.1-2.8,31.1s0.9,27.4,2.8,31.1c1.4,2.8,3.8,4.2,7.2,4.2
		c3.5,0,5.9-1.4,7.2-4.2c0.9-1.7,1.4-4.4,1.6-8.2H311.2z"/>
	<path class="st9" d="M387.4,212.4h-22.1l-13-41.5h-7v41.5h-21.3V105.9h30.4c11.1,0,18.8,2.7,23.1,8.1c4.3,5.4,6.5,13.5,6.5,24.4
		c0,6.6-0.8,12.1-2.5,16.7c-1.6,4.5-4.9,8.3-9.7,11.3L387.4,212.4z M362.7,138.4c0-2.6-0.1-4.7-0.4-6.4c-0.3-1.6-1-3.2-2.4-4.7
		c-1.3-1.5-3.3-2.2-5.8-2.2h-9v26.8h9c1.9,0,3.5-0.4,4.7-1.1c1.2-0.7,2.1-1.9,2.6-3.4c0.5-1.5,0.8-2.9,1-4.2
		C362.6,141.9,362.7,140.3,362.7,138.4z"/>
	<path class="st9" d="M452.6,114.5c4.5,5.7,6.7,14.2,6.7,25.4c0,11.2-2.2,19.6-6.7,25.4c-4.5,5.7-12.2,8.6-23.2,8.6h-8.8v38.6h-21.3
		V105.9h30.1C440.4,105.9,448.2,108.8,452.6,114.5z M437.9,145.2c0.2-1.3,0.2-3.1,0.2-5.3c0-2.2-0.1-4-0.2-5.3
		c-0.1-1.3-0.5-2.8-1-4.5c-0.5-1.6-1.5-2.9-2.8-3.7c-1.3-0.8-3.1-1.3-5.2-1.3h-8.2v29.6h8.2c2.1,0,3.8-0.4,5.2-1.3
		c1.3-0.8,2.3-2.1,2.8-3.7C437.4,148,437.8,146.5,437.9,145.2z"/>
</g>
</svg>
