<svg width="70" height="70" viewBox="0 0 70 70" fill="none" xmlns="http://www.w3.org/2000/svg">
<g clip-path="url(#clip0)">
<path d="M64.7347 18.9925L64.7325 18.9381C64.7021 18.2657 64.6818 17.5543 64.6695 16.7628C64.6124 12.9032 61.5442 9.71063 57.684 9.49487C49.6358 9.04573 43.4098 6.42138 38.0901 1.23623L38.0447 1.19297C36.3095 -0.397982 33.6921 -0.397982 31.9564 1.19297L31.911 1.23623C26.5913 6.42138 20.3653 9.04573 12.317 9.49541C8.45742 9.71063 5.38874 12.9032 5.33159 16.7634C5.31984 17.5495 5.29902 18.2609 5.26858 18.9381L5.26537 19.0646C5.10889 27.2715 4.9145 37.4853 8.33139 46.756C10.2102 51.8541 13.0556 56.2857 16.7882 59.9285C21.0393 64.077 26.6073 67.3705 33.3375 69.7172C33.5565 69.7936 33.784 69.8555 34.0157 69.902C34.3426 69.9671 34.6716 69.9997 35.0005 69.9997C35.3295 69.9997 35.659 69.9671 35.9853 69.902C36.2171 69.8555 36.4462 69.793 36.6663 69.7161C43.3884 67.3652 48.9506 64.0701 53.198 59.9221C56.9289 56.2782 59.7743 51.8455 61.6548 46.7464C65.0845 37.4479 64.8906 27.2149 64.7347 18.9925ZM57.801 45.3252C54.1972 55.0963 46.8406 61.8067 35.3108 65.8389C35.2697 65.8528 35.2259 65.865 35.1805 65.8741C35.0614 65.8976 34.9402 65.8976 34.8195 65.8736C34.7746 65.8645 34.7308 65.8528 34.6903 65.8389C23.1482 61.8142 15.7868 55.1075 12.1857 45.3359C9.03634 36.7905 9.21472 27.4146 9.37226 19.1431L9.37333 19.0972C9.40537 18.3864 9.42674 17.6419 9.43849 16.8237C9.46412 15.1099 10.8292 13.692 12.5462 13.5964C17.1006 13.3422 21.1017 12.4621 24.7782 10.9059C28.4498 9.35175 31.7108 7.16105 34.7463 4.20879C34.9007 4.07848 35.1009 4.07794 35.2548 4.20879C38.2909 7.16105 41.5518 9.35175 45.2229 10.9059C48.8994 12.4621 52.9005 13.3422 57.4555 13.5964C59.1725 13.692 60.5375 15.1099 60.5626 16.8243C60.5749 17.6467 60.5963 18.3912 60.6283 19.0972C60.7853 27.3783 60.9594 36.7616 57.801 45.3252Z" fill="#08CFD4"/>
<path d="M34.9996 17.5559C25.3801 17.5559 17.5546 25.382 17.5546 35.0009C17.5546 44.6203 25.3801 52.4464 34.9996 52.4464C44.6185 52.4464 52.4445 44.6203 52.4445 35.0009C52.4445 25.382 44.6185 17.5559 34.9996 17.5559ZM34.9996 48.3385C27.6451 48.3385 21.662 42.3554 21.662 35.0009C21.662 27.6464 27.6451 21.6633 34.9996 21.6633C42.3535 21.6633 48.3366 27.6464 48.3366 35.0009C48.3366 42.3554 42.3535 48.3385 34.9996 48.3385Z" fill="#08CFD4"/>
<path d="M40.0133 29.5852L31.9106 37.6879L29.7113 35.4886C28.9092 34.6865 27.6088 34.6865 26.8066 35.4886C26.005 36.2908 26.005 37.5912 26.8066 38.3928L30.4585 42.0447C30.8596 42.4458 31.3851 42.6461 31.9106 42.6461C32.4361 42.6461 32.9616 42.4458 33.3627 42.0447L42.918 32.4894C43.7197 31.6872 43.7197 30.3868 42.918 29.5852C42.1159 28.7825 40.8155 28.7825 40.0133 29.5852Z" fill="#08CFD4"/>
</g>
<defs>
<clipPath id="clip0">
<rect width="70" height="70" fill="white"/>
</clipPath>
</defs>
</svg>
