<svg height="512" viewBox="0 0 128 128" width="512" xmlns="http://www.w3.org/2000/svg"><g><path d="m15.9 50.001h96.199v49.999h-96.199z" fill="#18aa61"/><g fill="#7adb29"><path d="m64 69.25-48.1 30.75v-49.999z"/><path d="m64 69.25 48.1 30.75v-49.999z"/><path d="m64 15.9-48.1 34.101h96.2z"/></g><path d="m93 57.645-29 11.605-29-11.605v-30.895h58z" fill="#f6efea"/><g fill="#0b607e"><path d="m48.094 39.25h11.549a1.75 1.75 0 0 0 0-3.5h-11.549a1.75 1.75 0 1 0 0 3.5z"/><path d="m48.094 47.125h31.812a1.75 1.75 0 0 0 0-3.5h-31.812a1.75 1.75 0 1 0 0 3.5z"/><path d="m79.906 51.5h-31.812a1.75 1.75 0 1 0 0 3.5h31.812a1.75 1.75 0 0 0 0-3.5z"/></g><circle cx="64" cy="95.533" fill="#fc5c5f" r="16.566"/><g fill="#f6efea"><path d="m64 84.987a1.751 1.751 0 0 0 -1.75 1.75v12.289a1.75 1.75 0 1 0 3.5 0v-12.289a1.751 1.751 0 0 0 -1.75-1.75z"/><path d="m65.62 103.66a2.115 2.115 0 0 0 -.16-.3 1.986 1.986 0 0 0 -.22-.27 1.4 1.4 0 0 0 -.27-.21 1.459 1.459 0 0 0 -.3-.17 2.025 2.025 0 0 0 -.33-.09 1.56 1.56 0 0 0 -.68 0 2.025 2.025 0 0 0 -.33.09 1.779 1.779 0 0 0 -.3.17 1.4 1.4 0 0 0 -.27.21 1.8 1.8 0 0 0 -.51 1.24 1.953 1.953 0 0 0 .03.34c.03.11.06.22.1.33a2.85 2.85 0 0 0 .16.3 1.986 1.986 0 0 0 .22.27 1.4 1.4 0 0 0 .27.21 1.779 1.779 0 0 0 .3.17c.11.04.22.07.33.1a1.953 1.953 0 0 0 .34.03 1.741 1.741 0 0 0 1.75-1.75 1.953 1.953 0 0 0 -.03-.34c-.03-.11-.06-.22-.1-.33z"/></g></g></svg>