<svg width="32" height="32" viewBox="0 0 32 32" fill="none" xmlns="http://www.w3.org/2000/svg">
<g clip-path="url(#clip0)">
<path d="M31.9541 12.3286C31.8438 11.9892 31.5505 11.7418 31.1974 11.6906L21.2773 10.249L16.8407 1.25987C16.6828 0.939866 16.3569 0.737305 16.0001 0.737305C15.6432 0.737305 15.3173 0.939866 15.1594 1.25987L10.7227 10.249L0.802707 11.6906C0.449646 11.7418 0.156209 11.9892 0.0459596 12.3286C-0.0643525 12.668 0.0276471 13.0406 0.283209 13.2896L7.46118 20.2867L5.76694 30.1669C5.70656 30.5186 5.85119 30.874 6.13987 31.0838C6.30318 31.2024 6.49662 31.2628 6.691 31.2628C6.84025 31.2628 6.98999 31.2272 7.12712 31.1551L16 26.4903L24.8726 31.1551C25.1885 31.3211 25.5712 31.2935 25.8599 31.0837C26.1485 30.874 26.2932 30.5185 26.2329 30.1668L24.5381 20.2867L31.7169 13.2896C31.9724 13.0406 32.0645 12.668 31.9541 12.3286Z" fill="url(#paint0_linear)"/>
</g>
<defs>
<linearGradient id="paint0_linear" x1="16" y1="0.737305" x2="16" y2="31.2628" gradientUnits="userSpaceOnUse">
<stop stop-color="#0CC9CE"/>
<stop offset="1" stop-color="#08CFD4"/>
</linearGradient>
<clipPath id="clip0">
<rect width="32" height="32" fill="white"/>
</clipPath>
</defs>
</svg>
